<svg width="70" height="70" viewBox="0 0 70 70" fill="none" xmlns="http://www.w3.org/2000/svg">
<path d="M4.375 62.3445H18.5938C19.4637 62.3435 20.2977 61.9975 20.9129 61.3824C21.528 60.7672 21.8741 59.9332 21.875 59.0632V56.1088L31.6189 58.6851C32.3712 58.9573 33.1837 59.0185 33.9683 58.8619L37.2292 58.2098V68.907H39.4167V56.8757C39.4167 56.7139 39.3808 56.5541 39.3115 56.4078C39.2423 56.2615 39.1414 56.1325 39.0163 56.0299C38.8911 55.9273 38.7448 55.8538 38.5877 55.8146C38.4307 55.7754 38.267 55.7716 38.1083 55.8033L33.5383 56.7171C33.1134 56.797 32.6746 56.7563 32.2716 56.5996L21.875 53.8463V50.4079L32.6357 51.3018C33.6346 51.3844 34.6369 51.1911 35.5335 50.7431L37.4257 49.7968C38.1858 49.4182 39.0231 49.2207 39.8722 49.2195H52.5417C52.6898 49.2196 52.8365 49.1894 52.9726 49.1309L60.6288 45.8496C60.7931 45.7792 60.9376 45.6696 61.0497 45.5304C61.1618 45.3913 61.2381 45.2267 61.2719 45.0512C61.3056 44.8757 61.2959 44.6946 61.2435 44.5238C61.1911 44.3529 61.0976 44.1975 60.9712 44.0712L53.9857 37.0857L55.9735 34.4351L66.3641 43.9601C66.479 44.0655 66.5701 44.1943 66.6311 44.3378C66.6922 44.4813 66.7219 44.6362 66.7182 44.7922C66.7145 44.9481 66.6775 45.1014 66.6097 45.2419C66.542 45.3823 66.4449 45.5067 66.3252 45.6066L55.1228 54.9419C54.9996 55.0445 54.9005 55.1729 54.8324 55.3181C54.7644 55.4633 54.7292 55.6216 54.7292 55.782V68.907H56.9167V56.2941L67.7254 47.2867C68.0849 46.9871 68.3761 46.6141 68.5796 46.1927C68.7831 45.7713 68.8941 45.3113 68.9052 44.8435C68.9162 44.3757 68.8271 43.9109 68.6438 43.4804C68.4605 43.0499 68.1873 42.6635 67.8424 42.3472L56.562 32.0068C56.4501 31.9026 56.3172 31.8234 56.1723 31.7747C56.0273 31.726 55.8736 31.7088 55.7214 31.7243C55.5695 31.7384 55.4222 31.7842 55.289 31.8587C55.1558 31.9332 55.0397 32.0348 54.9482 32.1569L52.1677 35.8642C50.6784 34.5286 48.7251 33.8299 46.7266 33.9178C44.7282 34.0056 42.8437 34.8732 41.4775 36.3343C40.1112 37.7954 39.3719 39.7338 39.4182 41.7336C39.4644 43.7335 40.2925 45.6356 41.7249 47.032H39.8722C38.6837 47.0334 37.5116 47.3099 36.4478 47.84L34.5551 48.7863C34.0175 49.0558 33.416 49.1719 32.8168 49.1217L21.875 48.2128V35.0007C21.8741 34.1308 21.528 33.2967 20.9129 32.6816C20.2977 32.0664 19.4637 31.7204 18.5938 31.7195H4.375C3.50505 31.7204 2.671 32.0664 2.05585 32.6816C1.44071 33.2967 1.0947 34.1308 1.09375 35.0007V59.0632C1.0947 59.9332 1.44071 60.7672 2.05585 61.3824C2.671 61.9975 3.50505 62.3435 4.375 62.3445ZM54.695 40.8882L58.2822 44.4754L52.5051 46.9515C53.9303 45.5205 54.7301 43.5829 54.7292 41.5632C54.7292 41.3354 54.7145 41.111 54.695 40.8882ZM41.6042 41.5632C41.6042 40.4816 41.9249 39.4243 42.5258 38.5249C43.1267 37.6256 43.9808 36.9247 44.9801 36.5108C45.9794 36.0968 47.079 35.9885 48.1398 36.1995C49.2006 36.4106 50.1751 36.9314 50.9399 37.6962C51.7047 38.461 52.2256 39.4355 52.4366 40.4963C52.6476 41.5571 52.5393 42.6567 52.1254 43.656C51.7115 44.6553 51.0105 45.5094 50.1112 46.1103C49.2119 46.7112 48.1545 47.032 47.0729 47.032C45.623 47.0303 44.233 46.4535 43.2078 45.4283C42.1826 44.4031 41.6059 43.0131 41.6042 41.5632ZM15.6381 33.907L15.587 34.1826C15.501 34.6488 15.1982 35.0007 14.8831 35.0007H8.08563C7.77054 35.0007 7.46773 34.6488 7.38174 34.1826L7.33067 33.907H15.6381ZM3.28125 35.0007C3.28163 34.7108 3.39698 34.4328 3.60202 34.2277C3.80705 34.0227 4.08504 33.9073 4.375 33.907H5.10572L5.23056 34.5809C5.32172 35.2828 5.65845 35.9297 6.18107 36.4069C6.70368 36.8842 7.37842 37.161 8.08563 37.1882H14.8831C15.5903 37.161 16.2651 36.8842 16.7877 36.4069C17.3103 35.9297 17.647 35.2828 17.7382 34.5809L17.863 33.907H18.5938C18.8837 33.9073 19.1617 34.0227 19.3667 34.2277C19.5718 34.4328 19.6871 34.7108 19.6875 35.0007V55.782H3.28125V35.0007ZM3.28125 57.9695H19.6875V59.0632C19.6871 59.3532 19.5718 59.6312 19.3667 59.8362C19.1617 60.0412 18.8837 60.1566 18.5938 60.157H4.375C4.08504 60.1566 3.80705 60.0412 3.60202 59.8362C3.39698 59.6312 3.28163 59.3532 3.28125 59.0632V57.9695Z" fill="#815616"/>
<path d="M66.7188 5.46875H52.5V3.28125C52.4994 2.70127 52.2688 2.1452 51.8587 1.73509C51.4485 1.32498 50.8925 1.09433 50.3125 1.09375H32.8125C32.2325 1.09433 31.6765 1.32498 31.2663 1.73509C30.8562 2.1452 30.6256 2.70127 30.625 3.28125V5.46875H16.4062C15.8263 5.46933 15.2702 5.69998 14.8601 6.11009C14.45 6.5202 14.2193 7.07627 14.2188 7.65625V24.0625C14.2193 24.6425 14.45 25.1985 14.8601 25.6087C15.2702 26.0188 15.8263 26.2494 16.4062 26.25H32.8125C33.3925 26.2494 33.9485 26.0188 34.3587 25.6087C34.7688 25.1985 34.9994 24.6425 35 24.0625V22.9688H37.6051L41.6779 31.1142C41.7687 31.2958 41.9083 31.4485 42.0809 31.5553C42.2536 31.662 42.4526 31.7186 42.6557 31.7188C42.6956 31.7187 42.7356 31.7166 42.7753 31.7123C42.9974 31.6879 43.2068 31.596 43.3752 31.4491C43.5436 31.3022 43.663 31.1072 43.7174 30.8904L45.6977 22.9688H48.125V24.0625C48.1256 24.6425 48.3562 25.1985 48.7663 25.6087C49.1765 26.0188 49.7325 26.2494 50.3125 26.25H66.7188C67.2987 26.2494 67.8548 26.0188 68.2649 25.6087C68.675 25.1985 68.9057 24.6425 68.9062 24.0625V7.65625C68.9057 7.07627 68.675 6.5202 68.2649 6.11009C67.8548 5.69998 67.2987 5.46933 66.7188 5.46875ZM32.8125 24.0625H16.4062V7.65625H30.625V20.7812C30.6256 21.3612 30.8562 21.9173 31.2663 22.3274C31.6765 22.7375 32.2325 22.9682 32.8125 22.9688V24.0625ZM44.8438 20.7812C44.5998 20.7813 44.363 20.8628 44.1707 21.0129C43.9784 21.163 43.8418 21.373 43.7826 21.6096L42.3123 27.4912L39.2597 21.3858C39.1688 21.2041 39.0292 21.0513 38.8564 20.9445C38.6835 20.8377 38.4844 20.7812 38.2812 20.7812H32.8125V3.28125H50.3125V20.7812H44.8438ZM66.7188 24.0625H50.3125V22.9688C50.8925 22.9682 51.4485 22.7375 51.8587 22.3274C52.2688 21.9173 52.4994 21.3612 52.5 20.7812V7.65625H66.7188V24.0625Z" fill="#815616"/>
<path d="M41.5625 4.375C40.4026 4.37633 39.2906 4.83769 38.4704 5.65787C37.6502 6.47806 37.1888 7.59008 37.1875 8.75H39.375C39.375 8.31735 39.5033 7.89442 39.7437 7.53469C39.984 7.17496 40.3257 6.89458 40.7254 6.72901C41.1251 6.56345 41.5649 6.52013 41.9893 6.60453C42.4136 6.68894 42.8034 6.89728 43.1093 7.2032C43.4152 7.50913 43.6236 7.89891 43.708 8.32324C43.7924 8.74757 43.7491 9.18741 43.5835 9.58712C43.4179 9.98683 43.1375 10.3285 42.7778 10.5688C42.4181 10.8092 41.9951 10.9375 41.5625 10.9375C41.2724 10.9375 40.9942 11.0527 40.7891 11.2579C40.584 11.463 40.4688 11.7412 40.4688 12.0312V16.4062H42.6562V12.9867C43.6873 12.7204 44.5859 12.0873 45.1835 11.2059C45.7811 10.3245 46.0368 9.25546 45.9027 8.19907C45.7685 7.14267 45.2537 6.17147 44.4547 5.46749C43.6557 4.76351 42.6274 4.37508 41.5625 4.375Z" fill="#815616"/>
<path d="M42.6562 18.5938C42.6562 17.9897 42.1666 17.5 41.5625 17.5C40.9584 17.5 40.4688 17.9897 40.4688 18.5938C40.4688 19.1978 40.9584 19.6875 41.5625 19.6875C42.1666 19.6875 42.6562 19.1978 42.6562 18.5938Z" fill="#815616"/>
<path d="M27.6641 10.1641L24.0623 13.7658L20.4606 10.1641L18.9141 11.7106L22.5158 15.3123L18.9141 18.9141L20.4606 20.4606L24.0623 16.8589L27.6641 20.4606L29.2106 18.9141L25.6089 15.3123L29.2106 11.7106L27.6641 10.1641Z" fill="#815616"/>
<path d="M58.0383 18.9777C58.1165 19.1862 58.2565 19.3659 58.4395 19.4927C58.6225 19.6195 58.8399 19.6874 59.0626 19.6874C59.2853 19.6874 59.5026 19.6195 59.6857 19.4927C59.8687 19.3659 60.0087 19.1862 60.0869 18.9777L63.3681 10.2277C63.4301 10.0622 63.4511 9.8842 63.4293 9.70883C63.4075 9.53346 63.3435 9.36599 63.2428 9.22075C63.1421 9.07551 63.0078 8.95682 62.8512 8.87484C62.6947 8.79285 62.5206 8.75002 62.3439 8.75H55.7814C55.6046 8.75001 55.4305 8.79284 55.274 8.87482C55.1174 8.9568 54.983 9.07549 54.8824 9.22073C54.7817 9.36598 54.7177 9.53345 54.6959 9.70882C54.674 9.88419 54.695 10.0622 54.757 10.2277L58.0383 18.9777ZM60.7657 10.9375L59.0626 15.4786L57.3595 10.9375H60.7657Z" fill="#815616"/>
<path d="M60.7031 21.875C60.7031 20.9689 59.9686 20.2344 59.0625 20.2344C58.1564 20.2344 57.4219 20.9689 57.4219 21.875C57.4219 22.7811 58.1564 23.5156 59.0625 23.5156C59.9686 23.5156 60.7031 22.7811 60.7031 21.875Z" fill="#815616"/>
<path d="M6.5625 40.4688H8.75V42.6562H6.5625V40.4688Z" fill="#815616"/>
<path d="M10.9375 40.4688H16.4062V42.6562H10.9375V40.4688Z" fill="#815616"/>
<path d="M6.5625 44.8438H16.4062V47.0312H6.5625V44.8438Z" fill="#815616"/>
<path d="M6.5625 49.2188H12.0312V51.4062H6.5625V49.2188Z" fill="#815616"/>
<path d="M14.2188 49.2188H16.4062V51.4062H14.2188V49.2188Z" fill="#815616"/>
</svg>
