<svg width="70" height="70" viewBox="0 0 70 70" fill="none" xmlns="http://www.w3.org/2000/svg">
<path d="M21.8776 40.8359H7.29427C6.48886 40.8359 5.83594 41.4889 5.83594 42.2943V59.7943C5.83594 60.5997 6.48886 61.2526 7.29427 61.2526H21.8776C22.683 61.2526 23.3359 60.5997 23.3359 59.7943V42.2943C23.3359 41.4889 22.683 40.8359 21.8776 40.8359Z" fill="#815616"/>
<path d="M42.2917 32.0859H27.7083C26.9029 32.0859 26.25 32.7389 26.25 33.5443V59.7943C26.25 60.5997 26.9029 61.2526 27.7083 61.2526H42.2917C43.0971 61.2526 43.75 60.5997 43.75 59.7943V33.5443C43.75 32.7389 43.0971 32.0859 42.2917 32.0859Z" fill="#815616"/>
<path d="M62.7057 23.3359H48.1224C47.317 23.3359 46.6641 23.9889 46.6641 24.7943V59.7943C46.6641 60.5997 47.317 61.2526 48.1224 61.2526H62.7057C63.5111 61.2526 64.1641 60.5997 64.1641 59.7943V24.7943C64.1641 23.9889 63.5111 23.3359 62.7057 23.3359Z" fill="#815616"/>
<path d="M66.7732 3.47943C66.6369 3.30468 66.4626 3.16328 66.2635 3.066C66.0644 2.96871 65.8457 2.91809 65.6241 2.91797H53.9574C53.5706 2.91797 53.1997 3.07161 52.9262 3.3451C52.6527 3.6186 52.4991 3.98953 52.4991 4.3763C52.4991 4.76308 52.6527 5.13401 52.9262 5.4075C53.1997 5.68099 53.5706 5.83464 53.9574 5.83464H61.7901C53.5893 13.0419 44.3577 18.9836 34.4011 23.463C24.7923 27.7745 14.6135 30.6825 4.17719 32.0978C3.81054 32.1473 3.47641 32.3343 3.2425 32.621C3.00859 32.9076 2.89238 33.2725 2.91741 33.6416C2.94243 34.0108 3.10683 34.3566 3.3773 34.609C3.64777 34.8615 4.00408 35.0017 4.37406 35.0013C4.44039 35.0012 4.50664 34.9968 4.5724 34.9882C15.2852 33.5346 25.7335 30.549 35.597 26.123C45.5513 21.6517 54.8026 15.7567 63.0603 8.62297L61.2928 15.6959C61.1993 16.0709 61.2584 16.4676 61.4572 16.799C61.656 17.1304 61.9782 17.3694 62.353 17.4634C62.4692 17.4901 62.5882 17.5028 62.7074 17.5013C63.0324 17.5009 63.348 17.3919 63.6041 17.1916C63.8601 16.9913 64.0419 16.7113 64.1205 16.3959L67.0372 4.72922C67.0909 4.51453 67.0951 4.29042 67.0493 4.07389C67.0036 3.85735 66.9092 3.65406 66.7732 3.47943ZM65.6241 67.0846H4.37406C3.98729 67.0846 3.61636 66.931 3.34287 66.6575C3.06938 66.384 2.91573 66.0131 2.91573 65.6263C2.91573 65.2395 3.06938 64.8686 3.34287 64.5951C3.61636 64.3216 3.98729 64.168 4.37406 64.168H65.6241C66.0108 64.168 66.3818 64.3216 66.6553 64.5951C66.9288 64.8686 67.0824 65.2395 67.0824 65.6263C67.0824 66.0131 66.9288 66.384 66.6553 66.6575C66.3818 66.931 66.0108 67.0846 65.6241 67.0846Z" fill="#815616"/>
</svg>
