<svg width="70" height="70" viewBox="0 0 70 70" fill="none" xmlns="http://www.w3.org/2000/svg">
<path fill-rule="evenodd" clip-rule="evenodd" d="M24.7326 2.87891H34.1461V7.60227C37.2629 8.22352 40.1609 9.44975 42.7137 11.1534L46.0553 7.81186L52.7116 14.4683L49.3702 17.8097C51.074 20.3622 52.2995 23.2608 52.9212 26.3773H57.6445V35.7907H54.2147L48.4987 26.2519C47.6729 24.8739 46.1928 24.2617 44.785 24.4143C42.2084 18.4942 36.3078 14.3545 29.4393 14.3545C20.1999 14.3545 12.7099 21.8447 12.7099 31.0841C12.7099 40.1763 19.9631 47.5745 28.9989 47.8078L24.7328 54.9271V54.566C21.616 53.9447 18.7177 52.7185 16.1649 51.015L12.8236 54.3563L6.16732 47.6998L9.50846 44.3587C7.80467 41.806 6.57885 38.9073 5.95732 35.7907H1.23438V26.3773H5.95732C6.57857 23.2605 7.80494 20.3624 9.50846 17.8096L6.16719 14.4681L12.8236 7.81186L16.1649 11.1531C18.7176 9.44934 21.6161 8.22365 24.7328 7.60227L24.7326 2.87891ZM29.4395 39.7528C28.3881 39.7528 27.5358 40.6051 27.5358 41.6564C27.5358 42.7078 28.3881 43.5601 29.4395 43.5601C30.4908 43.5601 31.3431 42.7078 31.3431 41.6564C31.3431 40.6051 30.4908 39.7528 29.4395 39.7528ZM26.1136 25.7412C26.1136 23.9038 27.6022 22.4152 29.4396 22.4152C31.2768 22.4152 32.7654 23.9038 32.7654 25.7412C32.7654 27.3915 31.5678 28.7967 29.9305 29.0346C28.5621 29.2334 27.5359 30.408 27.5359 31.7926V35.5122C27.5359 36.5635 28.3882 37.4158 29.4396 37.4158C30.491 37.4158 31.3433 36.5635 31.3433 35.5122V32.6126C34.4211 31.7594 36.5728 28.9417 36.5728 25.741C36.5728 21.8019 33.3787 18.6079 29.4396 18.6079C25.5003 18.6079 22.3064 21.8019 22.3064 25.741C22.3064 26.7924 23.1587 27.6447 24.2101 27.6447C25.2613 27.6447 26.1136 26.7924 26.1136 25.7412ZM68.4579 63.8155L46.6223 27.3764C45.9832 26.3099 44.4315 26.3099 43.7923 27.3764L21.9567 63.8155C21.0827 65.2742 22.1276 67.1184 23.828 67.1184H66.5865C68.287 67.1184 69.3321 65.2742 68.4579 63.8155ZM45.2074 63.5387C43.9196 63.5387 42.8758 62.4948 42.8758 61.2071C42.8758 59.9193 43.9196 58.8755 45.2074 58.8755C46.4951 58.8755 47.5391 59.9193 47.5391 61.2071C47.5391 62.4948 46.4951 63.5387 45.2074 63.5387ZM47.0193 54.2739C47.0193 56.5436 43.3954 56.5435 43.3954 54.2739L42.2831 38.1234C42.2831 34.4601 48.1316 34.4601 48.1316 38.1234L47.0193 54.2739Z" fill="#815616"/>
</svg>
