<svg width="70" height="70" viewBox="0 0 70 70" fill="none" xmlns="http://www.w3.org/2000/svg">
<g clip-path="url(#clip0_4402_5341)">
<path d="M68.9746 51.2464C69.5409 51.2464 70 50.7875 70 50.221V42.131C70 41.5645 69.5409 41.1056 68.9746 41.1056H56.0205V14.26C56.0205 13.6936 55.5614 13.2346 54.9951 13.2346C54.4288 13.2346 53.9697 13.6936 53.9697 14.26V54.747H47.9389V5.49268H53.9697V10.3306C53.9697 10.897 54.4288 11.356 54.9951 11.356C55.5614 11.356 56.0205 10.897 56.0205 10.3306V5.27967C57.0099 4.86418 57.7067 3.88527 57.7067 2.74559C57.7067 1.2317 56.4751 0 54.9612 0H46.9823C45.4684 0 44.2369 1.2317 44.2369 2.74545V2.74723C44.2369 3.87201 44.9174 4.83998 45.888 5.26367V41.1056H36.0277C35.6206 40.0993 34.6348 39.3869 33.4845 39.3869H33.4832C32.3421 39.3869 31.3621 40.0876 30.9489 41.0811C28.7453 40.8589 26.9756 39.1452 26.6629 36.9664C27.6447 36.5475 28.3347 35.5724 28.3347 34.4381C28.3347 33.2862 27.6207 32.2994 26.6129 31.8927V22.1821C27.6207 21.7752 28.3347 20.7881 28.3347 19.6349C28.3347 18.483 27.6207 17.4962 26.6129 17.0894V16.5722C26.6129 8.38332 19.9571 1.72115 11.776 1.72115C11.7735 1.72115 11.7712 1.72156 11.7686 1.72156C11.3598 0.718594 10.3754 0.00916016 9.22647 0.00916016C8.07857 0.00916016 7.09447 0.718457 6.68568 1.72115H1.02539C0.459102 1.72115 0 2.18012 0 2.74654V10.8363C0 11.4028 0.459102 11.8617 1.02539 11.8617H6.72191C7.15025 12.8201 8.11084 13.4906 9.2266 13.4906H9.22783C10.3428 13.4906 11.3027 12.8211 11.7316 11.8639C14.3514 11.9098 16.469 14.0566 16.469 16.6905V17.141C15.5241 17.5753 14.8652 18.5285 14.8652 19.6347V19.6365C14.8652 20.7427 15.5241 21.6959 16.469 22.1303V31.9443C15.5241 32.3787 14.8652 33.3319 14.8652 34.4381V34.44C14.8652 35.5506 15.5292 36.5071 16.4801 36.9389C16.7631 44.7688 23.1298 51.072 30.9799 51.2423C31.4089 52.1992 32.369 52.8685 33.4846 52.8685C34.5976 52.8685 35.5562 52.2011 35.986 51.2466H45.8881V54.976C44.9176 55.3997 44.237 56.3676 44.237 57.4924V57.4943C44.237 57.7347 44.2712 57.9666 44.3294 58.1889H43.0376C42.6188 57.2079 41.6449 56.5184 40.5128 56.5184H40.5115C39.3794 56.5184 38.4054 57.2079 37.9868 58.1889H16.756V57.3424C16.756 56.1339 15.8543 55.1343 14.6889 54.9747V53.5028H18.5262C20.056 53.5028 21.3005 52.2581 21.3005 50.7284C21.3005 49.1987 20.056 47.9541 18.5262 47.9541H11.1943C10.628 47.9541 10.1689 48.4131 10.1689 48.9795C10.1689 49.5459 10.628 50.0049 11.1943 50.0049H18.5262C18.9252 50.0049 19.2497 50.3295 19.2497 50.7284C19.2497 51.1275 18.9252 51.452 18.5262 51.452H4.8449C4.44596 51.452 4.12139 51.1275 4.12139 50.7284C4.12139 50.3295 4.44596 50.0049 4.8449 50.0049H7.14643C7.71271 50.0049 8.17182 49.5459 8.17182 48.9795C8.17182 48.4131 7.71271 47.9541 7.14643 47.9541H4.8449C3.31516 47.9541 2.07061 49.1987 2.07061 50.7284C2.07061 52.2581 3.31516 53.5028 4.8449 53.5028H8.68219V54.9747C7.5168 55.1344 6.61514 56.134 6.61514 57.3424V58.1889H1.02539C0.459102 58.1889 0 58.6478 0 59.2143V67.3043C0 67.8707 0.459102 68.3297 1.02539 68.3297H37.9868C38.4055 69.3107 39.3796 70.0001 40.5128 70.0001C41.6449 70.0001 42.6188 69.3107 43.0376 68.3297H58.9062C59.325 69.3107 60.2991 70.0001 61.4322 70.0001C62.5644 70.0001 63.5384 69.3107 63.957 68.3297H68.9746C69.5409 68.3297 70 67.8707 70 67.3043V59.2143C70 58.6478 69.5409 58.1889 68.9746 58.1889H63.9569C63.5381 57.2079 62.5643 56.5184 61.4321 56.5184H61.4309C60.2987 56.5184 59.3249 57.2079 58.9061 58.1889H57.614C57.6725 57.966 57.7067 57.7335 57.7067 57.4924C57.7067 56.354 57.0098 55.3755 56.0205 54.96V51.2464H68.9746ZM67.9492 43.1564V49.1956H56.0205V43.1564H67.9492ZM46.2878 2.74545C46.2878 2.36236 46.5994 2.05078 46.9824 2.05078H54.9613C55.3444 2.05078 55.656 2.36236 55.656 2.74723C55.656 3.13031 55.3444 3.44189 54.9613 3.44189H46.9824C46.5994 3.44189 46.2878 3.13031 46.2878 2.74723V2.74545ZM25.5894 18.9401C25.9723 18.9401 26.284 19.2516 26.284 19.6365C26.284 20.0196 25.9725 20.3312 25.5894 20.3312H17.6105C17.2275 20.3312 16.9158 20.0196 16.9158 19.6365V19.6347C16.9158 19.2516 17.2274 18.9401 17.6105 18.9401H25.5894ZM24.5622 22.382V31.6926H18.5198V22.382H24.5622ZM17.6105 35.1345C17.2275 35.1345 16.9158 34.8229 16.9158 34.4399V34.438C16.9158 34.0549 17.2274 33.7433 17.6105 33.7433H25.5894C25.9723 33.7433 26.284 34.0549 26.284 34.4399C26.284 34.8229 25.9725 35.1345 25.5894 35.1345H17.6105ZM2.05078 3.7718H6.48279V9.81094H2.05078V3.7718ZM9.921 10.7466C9.921 11.1289 9.6101 11.4398 9.22783 11.4398H9.2266C8.84447 11.4398 8.53344 11.1289 8.53344 10.7466V2.75297C8.53344 2.3707 8.84434 2.0598 9.22783 2.0598C9.6101 2.0598 9.921 2.3707 9.921 2.75297V10.7466ZM11.9718 9.81914V3.77426C18.9321 3.87939 24.5622 9.57947 24.5622 16.5721V16.8893H18.5198V16.6905C18.5198 13.0063 15.6112 9.99004 11.9718 9.81914ZM18.5448 37.1853H24.624C25.0398 40.3234 27.5751 42.801 30.7393 43.1212V49.1824C24.2132 48.8961 18.9425 43.6896 18.5448 37.1853ZM33.4832 50.8175C33.101 50.8175 32.7901 50.5066 32.7901 50.1245V42.1308C32.7901 41.7486 33.101 41.4377 33.4832 41.4377H33.4845C33.8666 41.4377 34.1776 41.7486 34.1776 42.1308V50.1245C34.1776 50.5066 33.8666 50.8175 33.4832 50.8175ZM36.2284 49.1956V43.1564H45.8881V49.1956H36.2284ZM58.6869 66.2788H43.2567V60.2395H58.6871V66.2788H58.6869ZM12.6381 53.5026V54.9497H10.733V53.5026H12.6381ZM2.05078 60.2395H7.64053C8.20682 60.2395 8.66592 59.7805 8.66592 59.2141V57.3423C8.66592 57.1538 8.81932 57.0005 9.00772 57.0005H14.3633C14.5517 57.0005 14.7051 57.1538 14.7051 57.3423V59.2141C14.7051 59.7805 15.1642 60.2395 15.7304 60.2395H37.7675V66.2788H2.05078V60.2395ZM41.2059 67.2561C41.2059 67.6383 40.895 67.9492 40.5115 67.9492C40.1293 67.9492 39.8184 67.6383 39.8184 67.2561V59.2624C39.8184 58.8801 40.1293 58.5692 40.5115 58.5692H40.5128C40.8949 58.5692 41.2059 58.8801 41.2059 59.2624V67.2561ZM67.9492 66.2788H64.1761V60.2395H67.9492V66.2788ZM61.4309 58.5692H61.4321C61.8144 58.5692 62.1253 58.8801 62.1253 59.2624V67.2561C62.1253 67.6383 61.8144 67.9492 61.4309 67.9492C61.0487 67.9492 60.7377 67.6383 60.7377 67.2561V59.2624C60.7377 58.8801 61.0487 58.5692 61.4309 58.5692ZM46.9824 58.1887C46.5994 58.1887 46.2878 57.8771 46.2878 57.4942V57.4923C46.2878 57.1092 46.5994 56.7976 46.9824 56.7976H54.9613C55.3444 56.7976 55.656 57.1092 55.656 57.4942C55.656 57.8771 55.3444 58.1887 54.9613 58.1887H46.9824Z" fill="#815616"/>
</g>
<defs>
<clipPath id="clip0_4402_5341">
<rect width="70" height="70" fill="white"/>
</clipPath>
</defs>
</svg>
