<svg id="Capa_1" enable-background="new 0 0 512.152 512.152" height="512" viewBox="0 0 512.152 512.152" width="512" xmlns="http://www.w3.org/2000/svg"><g><path d="m491.574 93.03h-243.529v-18.279c0-2.68-1.43-5.155-3.75-6.495l-116.483-67.251c-2.32-1.34-5.18-1.34-7.5 0l-58.305 33.662c-3.587 2.071-4.816 6.658-2.745 10.245 2.072 3.588 6.659 4.817 10.245 2.745l54.555-31.497 101.484 58.591-101.484 58.592-101.484-58.591 18.539-10.703c3.587-2.071 4.816-6.658 2.745-10.245-2.071-3.588-6.658-4.816-10.245-2.745l-29.789 17.197c-2.32 1.34-3.75 3.815-3.75 6.495v134.504c0 2.68 1.43 5.155 3.75 6.495l116.483 67.251c2.32 1.34 5.18 1.34 7.5 0l12.047-6.955v122.106c0 11.304 9.196 20.5 20.5 20.5h104.978l-7.855 47.438h-15.756c-7.995 0-14.5 6.505-14.5 14.5v17.062c0 7.995 6.505 14.5 14.5 14.5h97.627c4.142 0 7.5-3.358 7.5-7.5s-3.358-7.5-7.5-7.5h-97.127v-16.062h145.769c.029 0 .058.001.087.001.031 0 .063-.001.094-.001h21.532v16.062h-37.668c-4.142 0-7.5 3.358-7.5 7.5s3.358 7.5 7.5 7.5h38.168c7.995 0 14.5-6.505 14.5-14.5v-17.062c0-7.995-6.505-14.5-14.5-14.5h-15.756l-7.855-47.438h104.978c11.304 0 20.5-9.196 20.5-20.5v-284.622c0-11.303-9.196-20.5-20.5-20.5zm-360.012 170.487v-117.184l101.483-58.592v117.183zm-116.484-175.775 101.483 58.592v117.183l-101.483-58.592zm364.169 378.348h-106.561l7.855-47.438h90.851zm117.827-67.937c0 3.033-2.467 5.5-5.5 5.5-42.013 0-302.051 0-331.216 0-3.033 0-5.5-2.467-5.5-5.5v-130.767l16.062-9.273v121.978c0 4.142 3.358 7.5 7.5 7.5h295.091c4.142 0 7.5-3.358 7.5-7.5v-190.396c0-4.142-3.358-7.5-7.5-7.5s-7.5 3.358-7.5 7.5v182.896h-280.091v-123.138l58.375-33.702c2.32-1.34 3.75-3.815 3.75-6.495v-70.121h217.967v17.874c0 4.142 3.358 7.5 7.5 7.5s7.5-3.358 7.5-7.5v-25.374c0-4.142-3.358-7.5-7.5-7.5h-225.467v-16.105h243.529c3.033 0 5.5 2.467 5.5 5.5z"/><path d="m437.441 204.066-78.339-45.229c-.987-.59-2.121-.959-3.334-1.039-.015-.001-.03-.002-.045-.003-.059-.004-.119-.006-.179-.009-.019-.001-.038-.002-.057-.002-.075-.002-.149-.004-.224-.004s-.15.001-.224.004c-.019.001-.038.001-.057.002-.06.002-.119.005-.179.009-.015.001-.03.002-.045.003-1.213.081-2.347.45-3.334 1.039l-78.338 45.229c-2.32 1.34-3.75 3.815-3.75 6.495v90.561c0 2.68 1.43 5.155 3.75 6.495l78.428 45.281c2.32 1.34 5.18 1.34 7.5 0l78.429-45.281c2.32-1.34 3.75-3.815 3.75-6.495v-90.561c-.002-2.68-1.431-5.155-3.752-6.495zm-82.178 43.116-63.428-36.621 63.428-36.621 63.429 36.621zm-70.929-23.631 63.428 36.62v73.241l-63.428-36.621zm78.429 109.862v-73.241l63.429-36.621v73.241z"/><path d="m415.389 283.717c0-4.963-4.734-7.927-8.22-7.927-3.224 0-7.508 2.522-7.508 7.494 0 4.982 4.755 7.927 8.22 7.927 3.223 0 7.508-2.523 7.508-7.494z"/><path d="m389.293 268.65c0-4.966-4.742-7.927-8.219-7.927-2.903 0-7.508 2.262-7.508 7.495 0 4.966 4.743 7.927 8.219 7.927 2.902 0 7.508-2.262 7.508-7.495z"/><path d="m303.356 275.79c-3.413 0-8.219 2.897-8.219 7.927 0 5.205 4.533 7.494 7.508 7.494 3.413 0 8.22-2.898 8.22-7.927 0-5.205-4.533-7.494-7.509-7.494z"/><path d="m336.96 268.218c0-5.205-4.534-7.494-7.51-7.494-3.413 0-8.218 2.897-8.218 7.927 0 5.205 4.533 7.494 7.508 7.494 3.414 0 8.22-2.898 8.22-7.927z"/><path d="m355.263 187.576c-10.013 0-10.011 15.837 0 15.837 10.013 0 10.011-15.837 0-15.837z"/><path d="m355.263 217.709c-10.013 0-10.011 15.837 0 15.837 10.013 0 10.011-15.837 0-15.837z"/><path d="m240.545 264.029h-31.062c-4.142 0-7.5 3.358-7.5 7.5s3.358 7.5 7.5 7.5h31.062c4.142 0 7.5-3.358 7.5-7.5s-3.358-7.5-7.5-7.5z"/><path d="m240.545 295.091h-31.062c-4.142 0-7.5 3.358-7.5 7.5s3.358 7.5 7.5 7.5h31.062c4.142 0 7.5-3.358 7.5-7.5s-3.358-7.5-7.5-7.5z"/><path d="m228.751 326.154h-19.269c-4.142 0-7.5 3.358-7.5 7.5s3.358 7.5 7.5 7.5h19.269c4.142 0 7.5-3.358 7.5-7.5s-3.357-7.5-7.5-7.5z"/><path d="m216.832 34.918h76.369c9.649 0 17.5 7.851 17.5 17.5v26.525c0 4.142 3.358 7.5 7.5 7.5s7.5-3.358 7.5-7.5v-26.525c0-17.92-14.58-32.5-32.5-32.5h-76.369c-4.142 0-7.5 3.358-7.5 7.5s3.358 7.5 7.5 7.5z"/><path d="m119.009 310.623h-70.9c-9.649 0-17.5-7.851-17.5-17.5v-44.806c0-4.142-3.358-7.5-7.5-7.5s-7.5 3.358-7.5 7.5v44.806c0 17.92 14.58 32.5 32.5 32.5h70.9c4.142 0 7.5-3.358 7.5-7.5s-3.358-7.5-7.5-7.5z"/></g></svg>