<svg width="24" height="24" viewBox="0 0 24 24" fill="none" xmlns="http://www.w3.org/2000/svg">
<path d="M3.66406 11.1114C3.24985 11.1125 2.84444 11.2309 2.49472 11.4529C2.145 11.6748 1.86527 11.9913 1.68789 12.3656C1.51051 12.7399 1.44273 13.1568 1.49239 13.568C1.54205 13.9792 1.70712 14.368 1.96851 14.6893L7.54066 21.5152C7.73934 21.7619 7.994 21.9576 8.28351 22.0861C8.57302 22.2146 8.88902 22.2722 9.20525 22.2541C9.88158 22.2177 10.4922 21.8559 10.8815 21.2611L22.4563 2.61989C22.4582 2.61679 22.4602 2.6137 22.4622 2.61065C22.5708 2.4439 22.5356 2.11344 22.3114 1.90584C22.2498 1.84883 22.1772 1.80503 22.0981 1.77714C22.0189 1.74925 21.9349 1.73785 21.8512 1.74366C21.7675 1.74947 21.6858 1.77235 21.6113 1.8109C21.5368 1.84946 21.4709 1.90286 21.4178 1.96782C21.4136 1.97293 21.4094 1.97796 21.405 1.98292L9.73163 15.172C9.68721 15.2222 9.63326 15.2631 9.57292 15.2922C9.51258 15.3214 9.44704 15.3383 9.38011 15.3419C9.31319 15.3455 9.24621 15.3358 9.18307 15.3133C9.11994 15.2908 9.06189 15.256 9.01232 15.2109L5.13817 11.6854C4.7358 11.3166 4.2099 11.1118 3.66406 11.1114Z" fill="black"/>
</svg>
