<svg width="60" height="60" viewBox="0 0 60 60" fill="none" xmlns="http://www.w3.org/2000/svg">
<path d="M59.0349 32.1838C59.1276 34.399 58.3378 36.5605 56.8389 38.1942C55.3399 39.8278 53.2541 40.8001 51.0392 40.8979C50.9096 40.9039 50.7803 40.9069 50.6513 40.9069C50.0628 40.9065 49.476 40.8428 48.9011 40.717C47.1953 43.3507 44.9585 45.5994 42.3339 47.3193C39.7093 49.0391 36.7546 50.1922 33.6589 50.7048C33.2927 51.7806 32.5622 52.6945 31.5936 53.2888C30.6251 53.883 29.4793 54.1202 28.3545 53.9593C27.2296 53.7984 26.1963 53.2495 25.4332 52.4076C24.6701 51.5656 24.2251 50.4835 24.1752 49.3483C24.1253 48.213 24.4736 47.0961 25.1599 46.1904C25.8462 45.2847 26.8273 44.6473 27.9337 44.3883C29.0401 44.1293 30.2023 44.265 31.2192 44.772C32.2362 45.279 33.0441 46.1253 33.5032 47.1647C37.8616 46.3587 41.799 44.0488 44.6291 40.6376C47.4592 37.2264 49.0025 32.9303 48.9901 28.498C48.9901 18.0268 40.4712 9.50781 29.9999 9.50781C19.5286 9.50781 11.0097 18.0268 11.0097 28.498C11.0091 31.7359 11.8366 34.9202 13.4135 37.7481C13.467 37.8415 13.5071 37.9418 13.5327 38.0462C13.685 38.4696 13.6688 38.9353 13.4872 39.347C13.3057 39.7587 12.9729 40.0848 12.5576 40.2579C11.5407 40.6859 10.4485 40.9063 9.34526 40.9061C9.21542 40.9061 9.0853 40.9031 8.95491 40.8971C6.74087 40.7981 4.65642 39.8252 3.15864 38.1917C1.66085 36.5581 0.871958 34.3973 0.964949 32.183C1.00233 31.3 0.981472 30.5121 0.961082 29.7503C0.942097 29.033 0.922293 28.2912 0.954871 27.5172C1.0521 25.3551 1.98213 23.3146 3.55017 21.8229C5.11821 20.3312 7.20262 19.5041 9.36682 19.5148C12.8421 11.5634 20.7819 5.99219 29.9999 5.99219C39.2179 5.99219 47.1578 11.5634 50.6331 19.5149C52.7975 19.5026 54.8826 20.329 56.4509 21.8207C58.0192 23.3124 58.9489 25.3536 59.0448 27.5159C59.0775 28.2911 59.0578 29.0328 59.0386 29.7501C59.0185 30.512 58.9975 31.3002 59.0349 32.1838ZM44.7427 28.498C44.7418 30.7567 44.2222 32.9849 43.224 35.0109C42.2257 37.037 40.7755 38.8067 38.9851 40.1835C37.1947 41.5604 35.112 42.5077 32.8976 42.9523C30.6832 43.397 28.3962 43.3271 26.2131 42.748L20.2458 46.1942C19.9447 46.3681 19.5988 46.4487 19.2519 46.426C18.9049 46.4033 18.5725 46.2782 18.2967 46.0665C18.0208 45.8549 17.8139 45.5662 17.7022 45.2369C17.5904 44.9077 17.5788 44.5527 17.6689 44.2169L19.1939 38.5277C16.6683 35.7978 15.263 32.2171 15.2577 28.498C15.2577 20.3666 21.8707 13.7519 29.9999 13.7519C38.1291 13.7519 44.7427 20.3666 44.7427 28.498ZM25.9013 28.498C25.9013 28.0318 25.7161 27.5847 25.3864 27.2551C25.0568 26.9254 24.6097 26.7402 24.1435 26.7402H24.1405C23.793 26.7409 23.4535 26.8445 23.1648 27.0381C22.8762 27.2316 22.6514 27.5064 22.5189 27.8276C22.3863 28.1489 22.352 28.5022 22.4202 28.843C22.4884 29.1838 22.6561 29.4967 22.902 29.7422C23.148 29.9877 23.4612 30.1548 23.8021 30.2223C24.143 30.2899 24.4963 30.2549 24.8173 30.1217C25.1383 29.9886 25.4126 29.7633 25.6056 29.4743C25.7986 29.1853 25.9016 28.8456 25.9016 28.498H25.9013ZM31.7581 28.498C31.7579 28.4405 31.7548 28.383 31.7487 28.3258C31.7432 28.2683 31.7346 28.2112 31.723 28.1547C31.7125 28.0984 31.6984 28.0428 31.6807 27.9883C31.6644 27.9332 31.6445 27.8793 31.6234 27.8254C31.6023 27.7715 31.5766 27.7211 31.5496 27.6707C31.5228 27.62 31.4935 27.5707 31.4617 27.523C31.4297 27.4748 31.3952 27.4283 31.3585 27.3836C31.3223 27.3388 31.2837 27.2961 31.2426 27.2559C31.2027 27.2148 31.1594 27.1762 31.1148 27.1387C31.0702 27.1035 31.0233 27.0684 30.9753 27.0367C30.9276 27.0049 30.8784 26.9756 30.8277 26.9488C30.7772 26.9219 30.7246 26.8973 30.6717 26.875C30.619 26.8529 30.565 26.8337 30.5101 26.8176C30.4005 26.7824 30.2873 26.7596 30.1726 26.7496C30.0005 26.733 29.8268 26.7413 29.657 26.7742C29.6005 26.7858 29.5446 26.8002 29.4896 26.8176C29.4346 26.8337 29.3806 26.8529 29.3278 26.875C29.2751 26.8973 29.2224 26.9219 29.172 26.9488C29.1216 26.9758 29.0724 27.0051 29.0242 27.0367C28.976 27.0684 28.9293 27.1035 28.886 27.1387C28.8403 27.1762 28.7982 27.2148 28.7571 27.2559C28.716 27.2962 28.6772 27.3388 28.641 27.3836C28.6047 27.4283 28.5707 27.4749 28.5392 27.523C28.507 27.5707 28.4772 27.62 28.4501 27.6707C28.4231 27.7209 28.3988 27.7725 28.3773 27.8254C28.3551 27.8787 28.3355 27.933 28.3187 27.9883C28.3025 28.0422 28.2884 28.0984 28.2767 28.1547C28.2651 28.2112 28.2564 28.2683 28.2508 28.3258C28.245 28.3832 28.2426 28.4406 28.2426 28.498C28.2426 28.5555 28.245 28.6141 28.2508 28.6715C28.2565 28.7285 28.2652 28.7852 28.2767 28.8414C28.2884 28.8977 28.3025 28.9539 28.3187 29.009C28.3355 29.0638 28.3551 29.1178 28.3773 29.1707C28.3988 29.2239 28.4231 29.276 28.4501 29.3266C28.4769 29.377 28.5075 29.4262 28.5392 29.4742C28.5707 29.522 28.6047 29.5682 28.641 29.6125C28.6775 29.6574 28.7163 29.7004 28.7571 29.7414C28.7982 29.7813 28.8403 29.8211 28.886 29.8574C28.9301 29.894 28.9762 29.9281 29.0242 29.9594C29.0724 29.991 29.1215 30.0215 29.172 30.0484C29.2738 30.1015 29.38 30.1454 29.4896 30.1797C29.5445 30.1961 29.6008 30.2102 29.657 30.2219C29.77 30.245 29.8851 30.2564 30.0004 30.2559C30.466 30.2546 30.9124 30.0698 31.2426 29.7414C31.3236 29.6592 31.3969 29.5697 31.4617 29.4742C31.4933 29.4262 31.5226 29.377 31.5496 29.3266C31.5766 29.2762 31.6012 29.2234 31.6234 29.1707C31.6457 29.118 31.6644 29.0629 31.6807 29.009C31.6983 28.954 31.7124 28.8981 31.723 28.8414C31.7345 28.7852 31.7431 28.7285 31.7487 28.6715C31.7547 28.6138 31.7577 28.5558 31.7577 28.4978L31.7581 28.498ZM37.6174 28.498C37.6174 28.0318 37.4323 27.5847 37.1026 27.2551C36.7729 26.9254 36.3258 26.7402 35.8596 26.7402H35.8562C35.5087 26.7409 35.1692 26.8446 34.8806 27.0381C34.592 27.2317 34.3672 27.5065 34.2347 27.8277C34.1021 28.149 34.0678 28.5023 34.136 28.8431C34.2042 29.1838 34.3719 29.4967 34.6179 29.7422C34.8638 29.9877 35.1771 30.1548 35.518 30.2223C35.8588 30.2899 36.2121 30.2549 36.5331 30.1217C36.8541 29.9886 37.1284 29.7633 37.3214 29.4743C37.5144 29.1853 37.6174 28.8456 37.6174 28.498Z" fill="#815616"/>
</svg>
